<?xml version="1.0" encoding="UTF-8" standalone="no"?>
<!-- Created with Inkscape (http://www.inkscape.org/) -->

<svg
   xmlns:dc="http://purl.org/dc/elements/1.1/"
   xmlns:cc="http://creativecommons.org/ns#"
   xmlns:rdf="http://www.w3.org/1999/02/22-rdf-syntax-ns#"
   xmlns:svg="http://www.w3.org/2000/svg"
   xmlns="http://www.w3.org/2000/svg"
   version="1.1"
   width="800"
   height="800"
   id="svg2">
  <defs
     id="defs4" />
  <metadata
     id="metadata7">
    <rdf:RDF>
      <cc:Work
         rdf:about="">
        <dc:format>image/svg+xml</dc:format>
        <dc:type
           rdf:resource="http://purl.org/dc/dcmitype/StillImage" />
        <dc:title></dc:title>
      </cc:Work>
    </rdf:RDF>
  </metadata>
  <g
     transform="translate(0,-252)"
     id="layer1">
    <path
       d="M 402.5,372.7 C 383.2,359.5 363.8,349 338.8,349 l -191,0 c -12.2,0 -16.1,-7.1 -16.1,-18.2 l 0,-41.2 C 68.08,306.4 14.55,349.2 14.55,409 l 0,393.1 c 0,98.4 101.15,220.9 242.35,220.9 50.5,0 102.6,-22 144.8,-41.8 47.8,23.8 94.5,41.8 145,41.8 141.3,0 242.4,-122.5 242.4,-220.9 l 0,-393.1 C 789.1,349.2 735.6,306.4 672,289.6 l 0,41.2 c 0,11.1 -3.9,18.2 -16.1,18.2 l -191.2,0 c -24.9,0 -44.4,10.5 -63.6,23.7"
       id="path3038-9"
       style="fill:#c6c6ce;fill-opacity:1;stroke:none" />
    <path
       d="m 94.63,358.3 c -19.66,1 -37.5,24.8 -37.5,43.8 0,142.1 271.57,71.4 271.57,217 l 72,0 2.6,0 72,0 c 0,-145.6 271.7,-74.9 271.7,-217 0,-19 -17.9,-42.8 -37.5,-43.8 0,10.2 -6.7,28.2 -25,28.2 l -201.9,0 c -44.4,0 -79.7,42.6 -80.3,42.6 -0.4,0 -36.5,-42.6 -80.9,-42.6 l -201.8,0 c -18.3,0 -24.97,-18 -24.97,-28.2 z"
       id="path3062"
       style="fill:#16217b;fill-opacity:1;stroke:#ffffff;stroke-width:10.1373;stroke-linecap:butt;stroke-linejoin:miter;stroke-miterlimit:4;stroke-opacity:1;stroke-dasharray:none" />
    <path
       d="m 53.68,517.1 0,270.6 c 0,101.4 96.92,194.5 203.22,194.5 64.5,0 124.1,-35 139.7,-51 l 5.5,-5 5.3,5 c 15.6,16 75.2,51 139.7,51 106.4,0 203.3,-93.1 203.3,-194.5 l 0,-270.6 c -2.8,32.8 -127.5,35.5 -128.1,88.8 l 0,237.6 -145.6,0 0,-165.8 -25.7,0 -98,0 -25.7,0 0,165.8 -145.5,0 0,-237.6 C 181.2,552.6 56.52,549.9 53.68,517.1 z"
       id="path2996"
       style="fill:#007b21;fill-opacity:1;stroke:#ffffff;stroke-width:10.1373;stroke-linecap:butt;stroke-linejoin:miter;stroke-miterlimit:4;stroke-opacity:1;stroke-dasharray:none" />
  </g>
</svg>
